PathFileType	4	(X/Y/Z)	/Users/itak/Documents/Research/Walk-IL/dataset/trc/00576_00009.trc
DataRate	CameraRate	NumFrames	NumMarkers	Units	OrigDataRate	OrigDataStartFrame	OrigNumFrames
100.000000	100.000000	4	53	mm	100.000000	461	527
Frame#	Time	RPSI			LPSI			L3			STRN			T10			C7			CLAV			RBAK			LBAK			LSHO			LUPA			LAEL			LAOL			LWTS			LWPS			LFRA			LIFD			LHPS			LHTS			RSHO			RUPA			RAEL			RAOL			RWTS			RWPS			RFRA			RIFD			RHTS			RHPS			RBHD			LFHD			RFHD			LBHD			LHIP			RHIP			RASI			LASI			LKNE			LTHI			LANK			LTIP			LTOE			LMT1			LMT5			LHEE			RKNE			RTHI			RANK			RTIP			RTOE			RMT1			RMT5			RHEE			
		X1	Y1	Z1	X2	Y2	Z2	X3	Y3	Z3	X4	Y4	Z4	X5	Y5	Z5	X6	Y6	Z6	X7	Y7	Z7	X8	Y8	Z8	X9	Y9	Z9	X10	Y10	Z10	X11	Y11	Z11	X12	Y12	Z12	X13	Y13	Z13	X14	Y14	Z14	X15	Y15	Z15	X16	Y16	Z16	X17	Y17	Z17	X18	Y18	Z18	X19	Y19	Z19	X20	Y20	Z20	X21	Y21	Z21	X22	Y22	Z22	X23	Y23	Z23	X24	Y24	Z24	X25	Y25	Z25	X26	Y26	Z26	X27	Y27	Z27	X28	Y28	Z28	X29	Y29	Z29	X30	Y30	Z30	X31	Y31	Z31	X32	Y32	Z32	X33	Y33	Z33	X34	Y34	Z34	X35	Y35	Z35	X36	Y36	Z36	X37	Y37	Z37	X38	Y38	Z38	X39	Y39	Z39	X40	Y40	Z40	X41	Y41	Z41	X42	Y42	Z42	X43	Y43	Z43	X44	Y44	Z44	X45	Y45	Z45	X46	Y46	Z46	X47	Y47	Z47	X48	Y48	Z48	X49	Y49	Z49	X50	Y50	Z50	X51	Y51	Z51	X52	Y52	Z52	X53	Y53	Z53	

462	4.61	741.6692504882812	1016.179443359375	-238.3568115234375	629.0120849609375	1022.756713867188	-310.4048156738281	685.1719970703125	1107.091430664062	-280.5903015136719	803.1285400390625	1300.246337890625	-475.2125854492188	680.2927856445312	1232.940307617188	-269.3140869140625	718.431396484375	1507.31787109375	-291.8907165527344	794.2033081054688	1411.054809570312	-453.0432434082031	754.3734741210938	1377.231323242188	-195.6474304199219	621.1080322265625	1456.329223632812	-310.6756591796875	595.8159790039062	1484.293579101562	-435.2097778320312	521.534912109375	1358.4326171875	-467.7893981933594	510.393310546875	1139.996948242188	-506.7872619628906	514.9893798828125	1124.813110351562	-406.1930847167969	607.2006225585938	908.1346435546875	-584.1677856445312	524.0377807617188	882.33544921875	-583.4341430664062	518.4970703125	1056.294067382812	-536.8194580078125	610.4201049804688	738.8436279296875	-591.6067504882812	537.25634765625	822.9219970703125	-591.5450439453125	601.1185302734375	832.0801391601562	-614.301025390625	881.1112670898438	1465.65234375	-267.0306701660156	928.630615234375	1398.698608398438	-218.10302734375	954.4468383789062	1107.331909179688	-194.1332397460938	902.0540161132812	1095.317138671875	-160.6316986083984	984.2228393554688	882.2760620117188	-322.8668212890625	1013.896301269531	862.4240112304688	-249.0587921142578	964.126953125	1051.732788085938	-197.8328247070312	978.5855102539062	711.7310791015625	-325.3753967285156	1007.480041503906	789.4559936523438	-335.6781616210938	1018.127136230469	787.7034301757812	-262.9893188476562	820.6572265625	1688.359130859375	-325.5326843261719	763.69677734375	1718.11669921875	-522.8321533203125	886.4772338867188	1714.132690429688	-447.0845336914062	682.5458374023438	1691.914306640625	-419.1531066894531	584.1967163085938	941.415771484375	-486.7605590820312	907.9694213867188	938.8997802734375	-279.4820556640625	906.063232421875	972.7780151367188	-383.878662109375	669.9546508789062	965.10888671875	-526.8844604492188	639.8175659179688	494.1449890136719	-467.7028198242188	610.841552734375	660.6203002929688	-490.2270202636719	582.3356323242188	36.65622329711914	-354.5466613769531	593.7103881835938	254.7855224609375	-394.3104858398438	731.7901611328125	40.94832992553711	-514.5948486328125	729.2310180664062	42.877685546875	-433.2355346679688	626.4393310546875	38.09969329833984	-468.8317260742188	597.6026611328125	36.88183975219727	-267.8804321289062	865.0567626953125	497.5967712402344	-339.8430480957031	920.0354614257812	784.2872314453125	-319.8991088867188	787.2727661132812	41.37441253662109	-257.9580383300781	844.1375732421875	354.3631591796875	-344.4911804199219	838.3843994140625	40.48250198364258	-478.463623046875	774.7501831054688	41.68087005615234	-435.4268493652344	857.4076538085938	40.76689529418945	-370.9415893554688	715.7476196289062	32.65944290161133	-230.1476287841797	
463	4.62	741.4775390625	1016.164367675781	-238.5261688232422	628.8892822265625	1022.681030273438	-310.7286376953125	684.9573364257812	1107.116088867188	-280.84521484375	802.9868774414062	1300.230590820312	-475.4848022460938	680.0489501953125	1232.876098632812	-269.5831298828125	718.2191162109375	1507.329711914062	-292.2502136230469	794.0578002929688	1411.0419921875	-453.3581237792969	753.9981689453125	1377.247436523438	-195.9321899414062	620.9618530273438	1456.352905273438	-311.1033020019531	595.679443359375	1484.302490234375	-435.6374206542969	521.3642578125	1358.492553710938	-468.2181396484375	510.0450439453125	1140.019775390625	-507.1072387695312	514.439453125	1124.898071289062	-406.471435546875	606.552490234375	907.7987670898438	-583.8538208007812	523.4472045898438	882.1852416992188	-583.2880249023438	518.0428466796875	1056.232421875	-536.982177734375	609.4636840820312	738.4691162109375	-590.984619140625	536.518798828125	822.7391967773438	-591.222412109375	600.5856323242188	831.7800903320312	-614.0279541015625	880.8590087890625	1465.660034179688	-267.2997131347656	928.3413696289062	1398.694091796875	-218.3413238525391	954.2217407226562	1107.307373046875	-194.5145263671875	901.7978515625	1095.287353515625	-161.0049896240234	984.2026977539062	882.4351196289062	-323.4656372070312	1013.803405761719	862.4776000976562	-249.634765625	963.9359741210938	1051.754638671875	-198.2641143798828	978.6621704101562	711.8426513671875	-326.1493530273438	1007.595703125	789.6768188476562	-336.4303894042969	1018.101806640625	787.8030395507812	-263.6692810058594	820.361083984375	1688.359741210938	-325.7434387207031	763.5838623046875	1718.220458984375	-523.15869140625	886.2694091796875	1714.159912109375	-447.2901306152344	682.3421630859375	1691.938720703125	-419.4455261230469	584.2166137695312	941.3304443359375	-487.1395263671875	907.7724609375	938.9617309570312	-279.5773315429688	905.972900390625	972.802734375	-383.9607849121094	669.966796875	965.0359497070312	-527.1641845703125	639.67919921875	494.0580749511719	-467.4623718261719	610.8403930664062	660.53173828125	-490.3443908691406	582.3412475585938	36.65240859985352	-354.5450439453125	593.6015625	254.8416595458984	-394.1700134277344	731.8163452148438	40.94008636474609	-514.5853881835938	729.293212890625	42.91158294677734	-433.1871337890625	626.451171875	38.10262298583984	-468.8087158203125	597.6016235351562	36.87087249755859	-267.881103515625	864.871826171875	497.6664428710938	-339.5867004394531	919.9055786132812	784.3900756835938	-320.1282043457031	787.2438354492188	41.3625602722168	-257.9551086425781	843.9801635742188	354.4751586914062	-344.2608642578125	838.39111328125	40.50722885131836	-478.4375	774.7073364257812	41.67863082885742	-435.4222106933594	857.3757934570312	40.75754165649414	-370.956787109375	715.7291870117188	32.63885116577148	-230.1548461914062	
464	4.63	741.27880859375	1016.156066894531	-238.685791015625	628.7645263671875	1022.587768554688	-311.0346374511719	684.7472534179688	1107.13623046875	-281.0986328125	802.8441772460938	1300.2119140625	-475.7481079101562	679.808349609375	1232.80126953125	-269.8578796386719	718.0233764648438	1507.33837890625	-292.6105346679688	793.9083251953125	1411.028442382812	-453.6643371582031	753.6310424804688	1377.260375976562	-196.2126312255859	620.7981567382812	1456.36474609375	-311.5013732910156	595.5279541015625	1484.302490234375	-436.0469970703125	521.1843872070312	1358.527587890625	-468.6222229003906	509.7166442871094	1140.025268554688	-507.4152221679688	513.9328002929688	1124.963623046875	-406.7486572265625	605.9221801757812	907.4244384765625	-583.5311889648438	522.8534545898438	882.009521484375	-583.1204833984375	517.6123657226562	1056.147216796875	-537.1373901367188	608.4741821289062	738.0703125	-590.3199462890625	535.7756958007812	822.5366821289062	-590.8786010742188	600.02734375	831.4142456054688	-613.6941528320312	880.6044311523438	1465.667358398438	-267.5628662109375	928.0658569335938	1398.691772460938	-218.58837890625	954.0310668945312	1107.285400390625	-194.9323272705078	901.5856323242188	1095.238403320312	-161.4000854492188	984.2044677734375	882.6204223632812	-324.1447448730469	1013.747924804688	862.5458374023438	-250.2990264892578	963.7738647460938	1051.777587890625	-198.7385406494141	978.7588500976562	711.9819946289062	-327.0218200683594	1007.708618164062	789.918212890625	-337.2572631835938	1018.1044921875	787.91259765625	-264.4424438476562	820.0759887695312	1688.364135742188	-325.956298828125	763.4954833984375	1718.318115234375	-523.4969482421875	886.0726928710938	1714.1767578125	-447.4844665527344	682.1497802734375	1691.963012695312	-419.7470703125	584.2384033203125	941.2459106445312	-487.504150390625	907.5975341796875	939.0270385742188	-279.6737365722656	905.8860473632812	972.8326416015625	-384.0288391113281	669.9957275390625	964.9619750976562	-527.4398803710938	639.5452880859375	493.9745178222656	-467.2347106933594	610.8662719726562	660.4443969726562	-490.473388671875	582.346923828125	36.65098571777344	-354.5417175292969	593.5337524414062	254.8834838867188	-394.0711364746094	731.8433837890625	40.93107986450195	-514.5762329101562	729.3590698242188	42.9473876953125	-433.1420593261719	626.46630859375	38.10532760620117	-468.7815856933594	597.6007080078125	36.86326217651367	-267.8804931640625	864.7012329101562	497.7401733398438	-339.3164978027344	919.7533569335938	784.500244140625	-320.3944091796875	787.2119750976562	41.33840942382812	-257.9498901367188	843.8193359375	354.5893249511719	-344.0097045898438	838.3999633789062	40.53611755371094	-478.4038696289062	774.6742553710938	41.67439651489258	-435.4152221679688	857.34375	40.74138259887695	-370.9621276855469	715.7120971679688	32.61531448364258	-230.1600646972656	
465	4.64	741.07080078125	1016.154846191406	-238.8438720703125	628.638427734375	1022.483703613281	-311.3239440917969	684.5426025390625	1107.147705078125	-281.3590698242188	802.7027587890625	1300.192260742188	-476.0042724609375	679.57763671875	1232.7275390625	-270.1385498046875	717.8366088867188	1507.3447265625	-292.9644470214844	793.7542724609375	1411.016845703125	-453.9620666503906	753.27880859375	1377.268188476562	-196.4915161132812	620.6143798828125	1456.365112304688	-311.8727416992188	595.3593139648438	1484.294555664062	-436.4353637695312	520.9939575195312	1358.539794921875	-468.9993896484375	509.411865234375	1140.013061523438	-507.71044921875	513.4697875976562	1125.015014648438	-407.0215148925781	605.3140258789062	907.0191040039062	-583.2059936523438	522.2490844726562	881.8071899414062	-582.9295654296875	517.2059326171875	1056.040893554688	-537.2822265625	607.4652099609375	737.6543579101562	-589.6223754882812	535.0175170898438	822.3143310546875	-590.5132446289062	599.432373046875	831.0006103515625	-613.2910766601562	880.3492431640625	1465.675903320312	-267.8204345703125	927.8007202148438	1398.694580078125	-218.8385925292969	953.8710327148438	1107.269775390625	-195.3797149658203	901.4095458984375	1095.163330078125	-161.8163299560547	984.2244873046875	882.8327026367188	-324.898681640625	1013.724609375	862.6337890625	-251.0471496582031	963.638671875	1051.800659179688	-199.2516937255859	978.8782958984375	712.1534423828125	-327.9930725097656	1007.811340332031	790.179931640625	-338.1510314941406	1018.128662109375	788.0335693359375	-265.300537109375	819.8046875	1688.374145507812	-326.1723022460938	763.4246215820312	1718.4052734375	-523.834716796875	885.8856201171875	1714.18310546875	-447.6643371582031	681.9703979492188	1691.987182617188	-420.0579223632812	584.2566528320312	941.1634521484375	-487.8529052734375	907.4498901367188	939.0965576171875	-279.7786865234375	905.804443359375	972.8687744140625	-384.0892028808594	670.044921875	964.8877563476562	-527.7162475585938	639.4083251953125	493.8941650390625	-467.0141296386719	610.9061889648438	660.3597412109375	-490.6083068847656	582.353759765625	36.6514892578125	-354.5368041992188	593.4944458007812	254.9097747802734	-394.0061950683594	731.8700561523438	40.92172622680664	-514.568359375	729.4200439453125	42.97527313232422	-433.1050415039062	626.4857788085938	38.10776519775391	-468.7511596679688	597.6019897460938	36.85981369018555	-267.8797302246094	864.5437622070312	497.8165893554688	-339.0390319824219	919.5693359375	784.617431640625	-320.6931457519531	787.1798095703125	41.30631256103516	-257.9427795410156	843.65380859375	354.6993713378906	-343.7372131347656	838.4105224609375	40.56929779052734	-478.3645324707031	774.651123046875	41.66942596435547	-435.4064636230469	857.3060913085938	40.70227432250977	-370.9478149414062	715.6968994140625	32.58917999267578	-230.1619873046875	
